<mxfile host="app.diagrams.net" modified="2024-04-04T22:36:20.476Z" agent="Mozilla/5.0 (Windows NT 10.0; Win64; x64) AppleWebKit/537.36 (KHTML, like Gecko) Chrome/122.0.0.0 Safari/537.36 Edg/122.0.0.0" etag="mYZnPbE51-QxWK-tkzen" version="24.0.5" type="google">
  <diagram name="Page-1" id="g_ELC5RirSssw_v0pdh-">
    <mxGraphModel grid="1" page="1" gridSize="10" guides="1" tooltips="1" connect="1" arrows="1" fold="1" pageScale="1" pageWidth="1100" pageHeight="850" math="0" shadow="0">
      <root>
        <mxCell id="0" />
        <mxCell id="1" parent="0" />
        <mxCell id="OP_FHKB6S3hPQ0ZAlqrp-1" value="" style="image;aspect=fixed;perimeter=ellipsePerimeter;html=1;align=center;shadow=0;dashed=0;spacingTop=3;image=img/lib/active_directory/internet_globe.svg;" vertex="1" parent="1">
          <mxGeometry x="34" y="185" width="140" height="140" as="geometry" />
        </mxCell>
        <mxCell id="OP_FHKB6S3hPQ0ZAlqrp-2" value="" style="shape=mxgraph.signs.tech.computer;html=1;pointerEvents=1;fillColor=#000000;strokeColor=none;verticalLabelPosition=bottom;verticalAlign=top;align=center;" vertex="1" parent="1">
          <mxGeometry x="30" y="572" width="148" height="128" as="geometry" />
        </mxCell>
        <mxCell id="OP_FHKB6S3hPQ0ZAlqrp-4" value="" style="whiteSpace=wrap;html=1;fillColor=#FF6666;strokeColor=#b85450;labelBackgroundColor=none;strokeWidth=5;" vertex="1" parent="1">
          <mxGeometry x="210" y="50" width="870" height="790" as="geometry" />
        </mxCell>
        <mxCell id="OP_FHKB6S3hPQ0ZAlqrp-5" value="&lt;div style=&quot;font-size: 13px;&quot;&gt;&lt;b style=&quot;background-color: initial;&quot;&gt;&lt;font style=&quot;font-size: 13px;&quot;&gt;&lt;u&gt;SSH (Port 22)&lt;/u&gt;&lt;/font&gt;&lt;/b&gt;&lt;/div&gt;&lt;div style=&quot;font-size: 13px;&quot;&gt;&lt;font style=&quot;font-size: 13px;&quot;&gt;&lt;u&gt;&lt;br&gt;&lt;/u&gt;&lt;/font&gt;&lt;/div&gt;&lt;div style=&quot;font-size: 13px;&quot;&gt;&lt;b style=&quot;background-color: initial;&quot;&gt;&lt;font style=&quot;font-size: 13px;&quot;&gt;&lt;u&gt;&lt;br&gt;&lt;/u&gt;&lt;/font&gt;&lt;/b&gt;&lt;/div&gt;&lt;div style=&quot;font-size: 13px;&quot;&gt;&lt;b style=&quot;&quot;&gt;&lt;font style=&quot;font-size: 13px;&quot;&gt;&lt;u&gt;HTTP (Port 80)&lt;/u&gt;&lt;/font&gt;&lt;/b&gt;&lt;/div&gt;" style="text;html=1;align=left;verticalAlign=middle;resizable=0;points=[];autosize=1;strokeColor=none;fillColor=none;" vertex="1" parent="1">
          <mxGeometry x="10" y="398" width="110" height="80" as="geometry" />
        </mxCell>
        <mxCell id="OP_FHKB6S3hPQ0ZAlqrp-6" value="&lt;b&gt;&lt;font style=&quot;font-size: 18px;&quot;&gt;Internet&lt;/font&gt;&lt;/b&gt;" style="text;html=1;align=center;verticalAlign=middle;resizable=0;points=[];autosize=1;strokeColor=none;fillColor=none;" vertex="1" parent="1">
          <mxGeometry x="60" y="160" width="90" height="40" as="geometry" />
        </mxCell>
        <mxCell id="OP_FHKB6S3hPQ0ZAlqrp-7" value="&lt;b&gt;&lt;font style=&quot;font-size: 18px;&quot;&gt;Workstation&lt;/font&gt;&lt;/b&gt;" style="text;html=1;align=center;verticalAlign=middle;resizable=0;points=[];autosize=1;strokeColor=none;fillColor=none;" vertex="1" parent="1">
          <mxGeometry x="40" y="700" width="130" height="40" as="geometry" />
        </mxCell>
        <mxCell id="OP_FHKB6S3hPQ0ZAlqrp-9" value="&lt;font style=&quot;font-size: 18px;&quot;&gt;&lt;b&gt;Red Team Resource Group&lt;/b&gt;&lt;/font&gt;" style="text;html=1;align=center;verticalAlign=middle;resizable=0;points=[];autosize=1;strokeColor=none;fillColor=none;" vertex="1" parent="1">
          <mxGeometry x="510" y="10" width="250" height="40" as="geometry" />
        </mxCell>
        <mxCell id="OP_FHKB6S3hPQ0ZAlqrp-10" value="" style="whiteSpace=wrap;html=1;fillColor=#f8cecc;strokeColor=#b85450;strokeWidth=5;" vertex="1" parent="1">
          <mxGeometry x="240" y="80" width="810" height="730" as="geometry" />
        </mxCell>
        <mxCell id="OP_FHKB6S3hPQ0ZAlqrp-11" value="" style="image;sketch=0;aspect=fixed;html=1;points=[];align=center;fontSize=12;image=img/lib/mscae/Azure_Firewall.svg;" vertex="1" parent="1">
          <mxGeometry x="305" y="200" width="110" height="110" as="geometry" />
        </mxCell>
        <mxCell id="OP_FHKB6S3hPQ0ZAlqrp-12" value="&lt;font style=&quot;font-size: 14px;&quot;&gt;&lt;b&gt;Red Team Security Group&lt;/b&gt;&lt;/font&gt;" style="text;html=1;align=center;verticalAlign=middle;resizable=0;points=[];autosize=1;strokeColor=none;fillColor=none;" vertex="1" parent="1">
          <mxGeometry x="280" y="165" width="190" height="30" as="geometry" />
        </mxCell>
        <mxCell id="OP_FHKB6S3hPQ0ZAlqrp-13" value="" style="verticalLabelPosition=bottom;html=1;verticalAlign=top;align=center;strokeColor=none;fillColor=#00BEF2;shape=mxgraph.azure.azure_load_balancer;" vertex="1" parent="1">
          <mxGeometry x="717.5" y="225" width="110" height="73" as="geometry" />
        </mxCell>
        <mxCell id="OP_FHKB6S3hPQ0ZAlqrp-15" value="&lt;font style=&quot;font-size: 14px;&quot;&gt;&lt;b&gt;Red Team Load Balancer&lt;/b&gt;&lt;/font&gt;" style="text;html=1;align=center;verticalAlign=middle;resizable=0;points=[];autosize=1;strokeColor=none;fillColor=none;" vertex="1" parent="1">
          <mxGeometry x="690" y="170" width="190" height="30" as="geometry" />
        </mxCell>
        <mxCell id="OP_FHKB6S3hPQ0ZAlqrp-16" value="" style="whiteSpace=wrap;html=1;fillColor=#F19C99;strokeColor=#B85450;strokeWidth=6;" vertex="1" parent="1">
          <mxGeometry x="260" y="389" width="230" height="300" as="geometry" />
        </mxCell>
        <mxCell id="OP_FHKB6S3hPQ0ZAlqrp-17" value="" style="whiteSpace=wrap;html=1;fillColor=#F19C99;strokeWidth=5;strokeColor=#B85450;" vertex="1" parent="1">
          <mxGeometry x="540" y="358" width="490" height="432" as="geometry" />
        </mxCell>
        <mxCell id="OP_FHKB6S3hPQ0ZAlqrp-25" value="" style="endArrow=none;html=1;rounded=0;strokeWidth=2;exitX=0.5;exitY=0;exitDx=0;exitDy=0;exitPerimeter=0;" edge="1" parent="1" source="OP_FHKB6S3hPQ0ZAlqrp-2" target="OP_FHKB6S3hPQ0ZAlqrp-1">
          <mxGeometry width="50" height="50" relative="1" as="geometry">
            <mxPoint x="104" y="510" as="sourcePoint" />
            <mxPoint x="140" y="360" as="targetPoint" />
          </mxGeometry>
        </mxCell>
        <mxCell id="OP_FHKB6S3hPQ0ZAlqrp-27" value="" style="endArrow=none;html=1;rounded=0;exitX=1;exitY=0.5;exitDx=0;exitDy=0;strokeWidth=2;" edge="1" parent="1" source="OP_FHKB6S3hPQ0ZAlqrp-1" target="OP_FHKB6S3hPQ0ZAlqrp-11">
          <mxGeometry width="50" height="50" relative="1" as="geometry">
            <mxPoint x="520" y="470" as="sourcePoint" />
            <mxPoint x="570" y="420" as="targetPoint" />
          </mxGeometry>
        </mxCell>
        <mxCell id="OP_FHKB6S3hPQ0ZAlqrp-28" value="" style="endArrow=none;html=1;rounded=0;strokeWidth=2;" edge="1" parent="1">
          <mxGeometry width="50" height="50" relative="1" as="geometry">
            <mxPoint x="720" y="255" as="sourcePoint" />
            <mxPoint x="417" y="254.67566738263258" as="targetPoint" />
          </mxGeometry>
        </mxCell>
        <mxCell id="OP_FHKB6S3hPQ0ZAlqrp-29" value="&lt;font size=&quot;1&quot; style=&quot;&quot;&gt;&lt;b style=&quot;font-size: 12px;&quot;&gt;HTTP (Port 80)&lt;/b&gt;&lt;/font&gt;" style="text;html=1;align=center;verticalAlign=middle;resizable=0;points=[];autosize=1;strokeColor=none;fillColor=none;" vertex="1" parent="1">
          <mxGeometry x="545" y="230" width="110" height="30" as="geometry" />
        </mxCell>
        <mxCell id="OP_FHKB6S3hPQ0ZAlqrp-30" value="&lt;b&gt;20.186.110.177 (Red-Team-LB)&lt;/b&gt;" style="text;html=1;align=center;verticalAlign=middle;resizable=0;points=[];autosize=1;strokeColor=none;fillColor=none;" vertex="1" parent="1">
          <mxGeometry x="680" y="195" width="190" height="30" as="geometry" />
        </mxCell>
        <mxCell id="OP_FHKB6S3hPQ0ZAlqrp-53" style="edgeStyle=elbowEdgeStyle;rounded=0;orthogonalLoop=1;jettySize=auto;elbow=vertical;html=1;" edge="1" parent="1" source="OP_FHKB6S3hPQ0ZAlqrp-48" target="OP_FHKB6S3hPQ0ZAlqrp-51">
          <mxGeometry relative="1" as="geometry" />
        </mxCell>
        <mxCell id="OP_FHKB6S3hPQ0ZAlqrp-31" value="" style="fontColor=#0066CC;verticalAlign=top;verticalLabelPosition=bottom;labelPosition=center;align=center;html=1;outlineConnect=0;fillColor=#CCCCCC;strokeColor=#6881B3;gradientColor=none;gradientDirection=north;strokeWidth=2;shape=mxgraph.networks.web_server;" vertex="1" parent="1">
          <mxGeometry x="565" y="385.5" width="105" height="105" as="geometry" />
        </mxCell>
        <mxCell id="OP_FHKB6S3hPQ0ZAlqrp-32" value="" style="fontColor=#0066CC;verticalAlign=top;verticalLabelPosition=bottom;labelPosition=center;align=center;html=1;outlineConnect=0;fillColor=#CCCCCC;strokeColor=#6881B3;gradientColor=none;gradientDirection=north;strokeWidth=2;shape=mxgraph.networks.web_server;" vertex="1" parent="1">
          <mxGeometry x="717.5" y="389" width="105" height="105" as="geometry" />
        </mxCell>
        <mxCell id="OP_FHKB6S3hPQ0ZAlqrp-33" value="&lt;font style=&quot;font-size: 14px;&quot;&gt;&lt;b&gt;Load Balancer Backend Pool&lt;/b&gt;&lt;/font&gt;" style="text;html=1;align=center;verticalAlign=middle;resizable=0;points=[];autosize=1;strokeColor=none;fillColor=none;" vertex="1" parent="1">
          <mxGeometry x="680" y="750" width="220" height="30" as="geometry" />
        </mxCell>
        <mxCell id="OP_FHKB6S3hPQ0ZAlqrp-34" value="" style="fontColor=#0066CC;verticalAlign=top;verticalLabelPosition=bottom;labelPosition=center;align=center;html=1;outlineConnect=0;fillColor=#CCCCCC;strokeColor=#6881B3;gradientColor=none;gradientDirection=north;strokeWidth=2;shape=mxgraph.networks.server;" vertex="1" parent="1">
          <mxGeometry x="305" y="418" width="90" height="100" as="geometry" />
        </mxCell>
        <mxCell id="OP_FHKB6S3hPQ0ZAlqrp-35" value="" style="endArrow=none;html=1;rounded=0;exitX=0.5;exitY=0;exitDx=0;exitDy=0;exitPerimeter=0;strokeWidth=2;entryX=0.409;entryY=1;entryDx=0;entryDy=0;entryPerimeter=0;" edge="1" parent="1" source="OP_FHKB6S3hPQ0ZAlqrp-34" target="OP_FHKB6S3hPQ0ZAlqrp-11">
          <mxGeometry width="50" height="50" relative="1" as="geometry">
            <mxPoint x="520" y="470" as="sourcePoint" />
            <mxPoint x="570" y="420" as="targetPoint" />
          </mxGeometry>
        </mxCell>
        <mxCell id="OP_FHKB6S3hPQ0ZAlqrp-36" value="&lt;font style=&quot;font-size: 14px;&quot;&gt;&lt;b&gt;Jump Box Provisioner Ansible&lt;/b&gt;&lt;/font&gt;" style="text;html=1;align=center;verticalAlign=middle;resizable=0;points=[];autosize=1;strokeColor=none;fillColor=none;" vertex="1" parent="1">
          <mxGeometry x="260" y="582" width="230" height="30" as="geometry" />
        </mxCell>
        <mxCell id="OP_FHKB6S3hPQ0ZAlqrp-37" value="&lt;div&gt;&lt;b&gt;Private IP address&lt;/b&gt;&lt;/div&gt;&lt;div&gt;&lt;b&gt;10.0.0.5&lt;/b&gt;&lt;/div&gt;&lt;div&gt;&lt;div style=&quot;&quot;&gt;&lt;b&gt;Public IP address&lt;/b&gt;&lt;/div&gt;&lt;div style=&quot;&quot;&gt;&lt;b style=&quot;background-color: initial;&quot;&gt;20.81.214.190&lt;/b&gt;&lt;/div&gt;&lt;div style=&quot;font-weight: bold;&quot;&gt;&lt;br&gt;&lt;/div&gt;&lt;/div&gt;" style="text;html=1;align=center;verticalAlign=middle;resizable=0;points=[];autosize=1;strokeColor=none;fillColor=none;" vertex="1" parent="1">
          <mxGeometry x="310" y="610" width="130" height="90" as="geometry" />
        </mxCell>
        <mxCell id="OP_FHKB6S3hPQ0ZAlqrp-40" value="&lt;b&gt;SSH (Port 22)&lt;/b&gt;" style="text;html=1;align=center;verticalAlign=middle;resizable=0;points=[];autosize=1;strokeColor=none;fillColor=none;" vertex="1" parent="1">
          <mxGeometry x="340" y="340" width="100" height="30" as="geometry" />
        </mxCell>
        <mxCell id="OP_FHKB6S3hPQ0ZAlqrp-44" value="" style="endArrow=none;html=1;rounded=0;elbow=vertical;entryX=0.5;entryY=0;entryDx=0;entryDy=0;entryPerimeter=0;exitX=0.5;exitY=0;exitDx=0;exitDy=0;exitPerimeter=0;strokeWidth=2;" edge="1" parent="1" source="OP_FHKB6S3hPQ0ZAlqrp-32" target="OP_FHKB6S3hPQ0ZAlqrp-31">
          <mxGeometry width="50" height="50" relative="1" as="geometry">
            <mxPoint x="520" y="470" as="sourcePoint" />
            <mxPoint x="570" y="420" as="targetPoint" />
            <Array as="points">
              <mxPoint x="770" y="310" />
            </Array>
          </mxGeometry>
        </mxCell>
        <mxCell id="OP_FHKB6S3hPQ0ZAlqrp-45" value="" style="shape=partialRectangle;whiteSpace=wrap;html=1;top=0;left=0;fillColor=none;strokeWidth=2;" vertex="1" parent="1">
          <mxGeometry x="600" y="493" width="170" height="20" as="geometry" />
        </mxCell>
        <mxCell id="OP_FHKB6S3hPQ0ZAlqrp-46" value="" style="shape=partialRectangle;whiteSpace=wrap;html=1;top=0;left=0;fillColor=none;strokeWidth=2;" vertex="1" parent="1">
          <mxGeometry x="400" y="493" width="200" height="20" as="geometry" />
        </mxCell>
        <mxCell id="OP_FHKB6S3hPQ0ZAlqrp-47" value="&lt;b&gt;SSH (Port 22)&lt;/b&gt;" style="text;html=1;align=center;verticalAlign=middle;resizable=0;points=[];autosize=1;strokeColor=none;fillColor=none;" vertex="1" parent="1">
          <mxGeometry x="450" y="488" width="100" height="30" as="geometry" />
        </mxCell>
        <mxCell id="OP_FHKB6S3hPQ0ZAlqrp-48" value="&lt;b&gt;Web-1&lt;/b&gt;&lt;div&gt;&lt;b&gt;Private IP: 10.0.0.6&lt;/b&gt;&lt;/div&gt;" style="text;html=1;align=center;verticalAlign=middle;resizable=0;points=[];autosize=1;strokeColor=none;fillColor=none;" vertex="1" parent="1">
          <mxGeometry x="550" y="525" width="130" height="40" as="geometry" />
        </mxCell>
        <mxCell id="OP_FHKB6S3hPQ0ZAlqrp-49" value="&lt;b&gt;Web-2&lt;/b&gt;&lt;div&gt;&lt;b&gt;Private IP: 10.0.0.7&lt;/b&gt;&lt;/div&gt;" style="text;html=1;align=center;verticalAlign=middle;resizable=0;points=[];autosize=1;strokeColor=none;fillColor=none;" vertex="1" parent="1">
          <mxGeometry x="705" y="518" width="130" height="40" as="geometry" />
        </mxCell>
        <mxCell id="OP_FHKB6S3hPQ0ZAlqrp-50" value="&lt;b style=&quot;font-size: 14px;&quot;&gt;&lt;font style=&quot;font-size: 14px;&quot;&gt;Red Team Network 10.0.0.0/16&lt;/font&gt;&lt;/b&gt;&lt;div style=&quot;font-size: 14px;&quot;&gt;&lt;b style=&quot;&quot;&gt;&lt;font style=&quot;font-size: 14px;&quot;&gt;Red Team Virtual Subnet 10.0.0.0/24&lt;/font&gt;&lt;/b&gt;&lt;/div&gt;" style="text;html=1;align=center;verticalAlign=middle;resizable=0;points=[];autosize=1;strokeColor=none;fillColor=none;" vertex="1" parent="1">
          <mxGeometry x="510" y="54" width="260" height="50" as="geometry" />
        </mxCell>
        <mxCell id="OP_FHKB6S3hPQ0ZAlqrp-51" value="" style="image;sketch=0;aspect=fixed;html=1;points=[];align=center;fontSize=12;image=img/lib/mscae/Docker.svg;" vertex="1" parent="1">
          <mxGeometry x="554.57" y="590" width="90.24" height="74" as="geometry" />
        </mxCell>
        <mxCell id="OP_FHKB6S3hPQ0ZAlqrp-55" value="" style="image;aspect=fixed;html=1;points=[];align=center;fontSize=12;image=img/lib/azure2/containers/Container_Instances.svg;" vertex="1" parent="1">
          <mxGeometry x="690" y="590" width="68.64" height="74" as="geometry" />
        </mxCell>
        <mxCell id="OP_FHKB6S3hPQ0ZAlqrp-56" value="" style="endArrow=classic;html=1;rounded=0;elbow=vertical;" edge="1" parent="1" source="OP_FHKB6S3hPQ0ZAlqrp-51" target="OP_FHKB6S3hPQ0ZAlqrp-55">
          <mxGeometry width="50" height="50" relative="1" as="geometry">
            <mxPoint x="520" y="420" as="sourcePoint" />
            <mxPoint x="570" y="370" as="targetPoint" />
          </mxGeometry>
        </mxCell>
        <mxCell id="OP_FHKB6S3hPQ0ZAlqrp-57" value="&lt;b&gt;&lt;font style=&quot;font-size: 10px;&quot;&gt;Container Instance&lt;/font&gt;&lt;/b&gt;" style="text;html=1;align=center;verticalAlign=middle;resizable=0;points=[];autosize=1;strokeColor=none;fillColor=none;" vertex="1" parent="1">
          <mxGeometry x="669.3199999999999" y="659" width="110" height="30" as="geometry" />
        </mxCell>
        <mxCell id="OP_FHKB6S3hPQ0ZAlqrp-60" value="" style="shape=image;verticalLabelPosition=bottom;labelBackgroundColor=default;verticalAlign=top;aspect=fixed;imageAspect=0;image=data:image/png,iVBORw0KGgoAAAANSUhEUgAAAyAAAAMgCAMAAADsrvZaAAAAY1BMVEUAAAAAAAAAAAAAAAAAAAAAAAAAAAAAAAAAAAAAAAAAAAAAAAAAAAAAAAAAAAAAAAD///8AAADv7++fn59gYGAQEBAgICDf399AQEAwMDDPz8+AgIC/v79QUFCvr69wcHCPj4/yfBvbAAAAEHRSTlMAQIAQv++fYN/PMCBwj69Q3qNgIgAAHpBJREFUeF7sx7ENACAIADDQjfD/vSZGr6DdGjMBAAAAAAAAAAAAAAAAAAAAAAAAAAAAAAAAAAAAAAAAAAAAAAAAAAAAAAAAAAAAAAAAAAAAAAAAsPPpdf1WzASH/TrAQRCGYgBKS//cZED+/S/rEUyMoFv67tC0BU6ySIp8o0kH2YF1mZzZhs6imp8JiQSW2Zit6FTL7wgVTrK/zNB3RV6gHcS2jMpsBY+a1wrxHC4lZs9eWt4lxGE+vBmoyNu1fYQqMYcjf6eWx782idmLvXvLcRMIogBa0DRPg1VSFCma0WT/u8x/YjKPeDLYPmcPV3CrumE+bfn1pvUcBwPl3I95GNtpiaOA5bTl0YzrHF8P5nbKY6r9Ob4SzOuYl8gILO1eOmQEvWPKW1H/bx+BYcvbMv6vuRbMfc0btA3x2aAMU96qui4BHh77uiE+CQxd3r7aLnF1UNox70TfxFXB0udl3rSg6fLejEMJUD121bbEv4JhzF36OuJx1/pDRATxEBHEQ0QQD3Udmil3iQj2Ho9mHOIAsDU/rLGJV0Fp81F1c/wdDDUf2FoClI9d9RQ7oPTJ1MQlcKpJZvYlfgdzl5d5z4Ky5g7zLGh+O1dCG6Ccv7o3hHNNLi9FoGx5ZR4ieHx4iGB4xTTHnzC8wjiLNl9Ht8QjYpnyLajneAO0c6ezsBtEV2ee8j2oQ+DaIF6ziFhzB1YilCl3YJpFU3MHloac8uPoStw1+nw3FBH1A0WEueY/4xT7cLiEPj4G9VxVRz1nWmIXbp5T5/gYjK8Ms3B4lyEemfEuxr3ygXEvQx6LhCAfLlEhH0wlLkA+kBCXa5EQx0uQEPlAQpAPCUE+JAT9XEIw35UQ5ENCkA+2uAfygZOLNHksEoL7H6xx2+QDt3ApYx6QhOD7JcxxcGx5TL6XhQNYjCUehu/vYqVuQYh1iAEvfmRIqbkHw16mPDqjLAywqCV2YYDFFLfDCV6Mslhq3jdFHQXdqSwUdGdOsEGni6vDBv3Hz6eX5+eXp2/fbdSvhDL9Yu/MluTGjShKSdPStFYQC9el+P9f6XDYYYZnbHWBSbCBxDkfUG8ZqIs8vNAyHc6a/9DPpc/Ih+Y6gADSLeYvzIF94b8AAsjD/J1+JIb8E2AD4sz/wnpeipYBrxrn48CzDZEAH3XPh7Ejlb21g4K1mv/PVHmZHFCCFaz5DXNbMr8aIYBiMpvfYQN3veeAX63eA+RgrvldBOAj9If5Pbat+E8W0KLYmzfw1S7UgT9Y7WreYqn38Smg5WczbzLW+icLqKnuzNu4WltOgJaG3byNDZX+yQLeybHmCTyfhsQBP1odePMMPV+oRwFfWyUs5imGGh/4BGp+RvMcrsYaIKBn1Jkn6Sg5EYBjokrDkgtZdC0i8erVsOQxHeOEFYhaDUsuZJHTSehKGMzzLLXV9QJFo5uJoKOMVAAJXY2GJReykBbpMdH2qa1iIevgzyY98K1VgzVRePqsBXDFq0HDkgtZeO9Y7lo1LLmQhZIFf7RaGE0sri2ebw1wgAg0LJGQxfO3cDQpqtaw5EIWn06xI9SvYcljOlYvB4h+DetgreMIAQ6QwZxhqeMIAQ6QzZyiI4XUAAmkM+fYSSE1QAKZzTlsIIXohwTSWnMSTwrRDwnEm7NMLSlEPRwgiznNQArRDgmkM+dx2o8QIIE4IyCQQiKgqUGDhiUXspB60XiJ6AIhC6mX70AUaFgCIYsjhDZ3pRqWXMiiRQ4+E9F/I2RRREqVCRqWKiGr/d4AXVgRGlYMtv0v6MiCFyJ6hJBFzSKWiRoNSy5k4ZvAa1UaVm/NW4wsCw/ga10Rfd4FQpb2m17gjrfrIoQsbnrhU1uVhrU9Y8M/2n/Dq4Xwva6Ivratr0LIem2ALpMYDetwEa1AyFL6JhugYR02+9sxfavT6QUi+qGjqBeyGuBJwkgNa3t2W7Jri+nAFn1+un13rULI+tmIgZ91RfTn07zXtU0HRPc14oPz+RkhC+kdvtfVhtVFxJWRVQg0r3VF9Jj6d6dpFQJ4intUH8MqF7L0G4vwoyoNq49L9I+qPiwECqvnuDvhHt1ED2gmk3mTLjKyDPT/8A+rIg1ri32lbaO8AZG3Ig1rjR6pDqVXB4i8wbxJH+/Gz9xj6YA7rPlEbftDIGRxj8WWUFsbVnfi1PHsCjWAh7WaM4nb1VBk/bEBPKwlIqJHxfQRH4s3QarQsPpzfrzDeS8f6n72iIgeGdMDzjuNvDU8StidvBx+8F1h6dDW4M3ZpbirQchqKoc3D6bTDw+O6oUsXkJAVBwiInr8bG0Ii1zyqtewZoEk33HRyyWvcg3LdIJ8P1d50Qs1aVib5PixNRbIwQdFGpakinpULWRR0ovJuxrZVe2kWcjC6MXk3QQRXXtMJ4TgmXTRET0+pjtCCBFEsYa1SX/BhtpCCHxslWDjI3r8GeQJIajuajWs/oKn1WsLIVCRhjVfMGQDIaREiCCjIKIfKI3p6FiIWC4ioouCfoeOxbtSOjWsVXBVrEfIamqESsXHkxGdmP6hqRDWhL0ooh94hUIWH6aT0deIiC6N6Qu+ImtChRrWdpky3+ErktH1aVjrZT/lSOlkdHUaVn/dYWQDKZ2Mrk3Dmi+MM56UTkYvVcOSB4del5BFSmePPpkrK3tm5ULWH01d0Kk4RkV0YnpTF7juLjaiy++MQx0P6YBCDUsuUK2KhCwKSHlZ6iGI6OpjOi9NIZr08RFdPnIrsgmiiZrCarNe7s4vXGPRGadGw+oTxP4O2YRLLC0a1pzgVNrbcvnUVAMm1iyI6JJcY4N+Gwvq0LCWJDdjnmYTnpbSoWH5JLuViXve/EFVXEyaVz2cAiGL125RFUeTKE4PCoQsdEXWIM6kupCdFAtZL00d0IkVBBFdHm5mfF5c3vI1LJ9s9nrlPi+8VKBh2YQS/ap7EQI1aFh7wvy/IbznDI0Nmyyiy2N6h/CO7F62hrUk3UHuDAgDUraG5ZNekVmEd/aERWtYNvGSxTMg7AlL1rD2xGv6iQFhQArWsEyXWvQa2RSySC9Xw1qSn1GOAWGRXq6G5dOnnMCAMCClalj2htb4h9pVOrxq17D2GzYtvdoBAe0alunuuAhYtQ4IaNewpluukjetAwLaI7p53LKM7JS6JqBVwzrYwg0xfWdAULHK0rAOpjH9JFoGhAEpLKIf2DW9Uu8ZEAYkVw0r+Zfja3FCFgPCgCwmgiWkPqxGmrEYkOIi+kE/Jo47Dp03JxgQZ+KwPnFMDwwIA5KxhpVWut2KErIYEIpHvYlnCiljes+A5APFo705gR1TxvSBAWFActawkoonc0FCFgPCgDhzEhfSPcTeMSB5wIB05jRTl2wkZwaEAclXw0osngzFCFkMCAPSGwlzqpjuGZAcYEC8kbGFNN/3LgwIA5K3hiUy4OUxfWRAGJBCI7pcPHFFCFkMCAPizAXsSWJ6YEBwsTLWsIQGvDymPxgQBqTQiC4XTx4FCFkMCAMymavw1x9dAwPCgOSqYcnFE3n42RgQBqTQiC4XT8bchSxKGxiQYC7FDhf/u5sZEAakUA1LbsD7zGM6A8Ir0L25mi1cGtO9pgGBtjBWcz3TeGUAWjQNCGjUsJZJYMDXE9O/NG8DGjUsHy+j7BfGdKfo+QN4aYtiN88VST9SiSc+XyGLAeGNwmCfPQ0Ga9JUL+Yb0xkQBsSbpzNAN6Ux4Hc1QtanRhsMyBTxLnpwJhJ3VQoa1DwDDT/UaVj+sG+TVC8umcZ0BoTWBmfiqkVWm0A88UqErD8bZTAgIfrCdpwE4okgps9aZF74VZSGFW3Thk1gwBcV0xkQbMXenBA95ssN+M6oELJ+NE8AXzVpWEdEFwWRVR7TFy0qFujSsGz7d8b+4urFVUVM/96oggHpTjtVYYk34KXK/Y5pgmuSn4ZluidytVw8mbMTshgQBsQaQTmujw4iXntMb1TBKt3HRXR5ENllb3pODMidsCmcjOyBjjBdaMCv5QtZr40m2BSOctvQxVcvSmK6Y0/IpjCzNqzx6s5SL1nqB/aE9JrcqWHJ//aP9irxpDMZCVnsCVmEPAQRXRREpu50TO9Zg7AIyUnDsiFFcakdTjcEr23GfG2eA35q0bBcxFkkN+D7bIQs1iDc827iiH4w2EvEk0cuQhafS3HP210Q0Q+66YrqxWAyEbK45eWed7/2NZzgzAUGvMtEyEJ2x+e10oguDyL7qZjuFfSOwp8qNCwXl/qtXDzpsxCycHnxeafLIvrBOIkN+EcOQhaqIrrieFVEF9Y5WB8f0x2XWOiKWWhY/o63qly8HxZQFdNCb0MwERE9cRCZQuzR9sDEKp9CNSy5Wz72MvFkKlbI+tVogZTeR0T0WMIiEk98sULWt0YJFFivCSK6pM7BuBD1XMnWZshLEwF8KVfDki/kvBWIJ+59hSwyOim9E0T0ZEFkjYnpOxk9HaT0PUFEF9c5mDkiplsyejpI6TZdRD9w5qwB799TyCKjs0v3aSK6vM6hH5+O6RN79FSwS1/MPc7saE+KJ7v8gLufn40OaDYZBRE9eRDZn71EcBS7pwHj3YkjesKvqMwUnjzjQuGuO3xusyQIIrrAaYmqXvQFClmNDlgVPtJGdHmdg/FP3bP1qLyF861EDUse0eV1DsaF/X2ELFReQsggiOj3BZHBvIuQRQQhhGziiH7HV1TWvoeQRQQhhHQmQUQX1DlI2IkgV0MImRNEdEGdgwhLBLkaQoi9KaLL6xzuF7KorSaEeEFEvzuI3F5kzcdS6FiLOKLf9RXV/VkJEQsda7wtosvrHG4fZUpHaW5wCSK6oM5BjA30NRTN9xI1LH9bpbycB88/Xwf1cQ9BRM8ziPS8bnsd2CZ9Bv/rx2snZMAzuQrasYZ7I7q8zuFOIYtLXi56t5sjurzOoRAh63NzFngpTcPyt64r5cwU/lwDRu+cz8XpaFUJWZ+as8AXInriIOJZo18By3SflbwRnAYhS75Gh59FaVjT7UsZOWPJ/7DgCxFdWueQXshCVERYdPm5Td2UiZCFqMh/rGAFET3zIOK5w1K1KySiH8xZCFncYbEr7BNE9GzqHAbusGSwKxwSRPR86hxcyR4WfCCip65z6PCwJOC8d1nfl87vK2RhuuO8z/KInvVXVH3J70rBNyJ66joHX3JhHLxmoGHlbf2F5d2ELNoa0E2WAhbSuxHRFVzJC59eiOiJg4hDMzkLqxBXhhQ72ncQsliCUP8TrDiiF/AVlafu5xzEdF9OBZu7XcgiohPTe2OKeVXZ3yxkEdGJ6YMg5JYURBwR/Qxs051ciC3jK6qOLTrb9FQaVt9mQ3D3CVls0SlvmAuJ6PI6h56yhpL5QERPXeewIrrHgvS+CgJuaUFk593OWBCyFnlEL+Yrqh4NS/ERQkSX1zl0JX8pBR+zdWQfbYasNnEI4Y4XpzfYgiK6vM5hxuONgiPECyJ6gUFk5gCJgmXhVGREP9izHZDvTfnQkDUUGtEPvM1zQF40LAk5QlxREV1e5/DAMomAIySYoiK6vM5h4ACJgBQyR0V0BUEkcIBEQArp5RG9qK+oJhJIBKSQtayILq9zeJBAIiCFLKVH9IMwXVxsQgIhhXQKIvqBu3YLQgIhhewaIvqBr+MAgW8v+WhYR0RXEERWLKwIMLJ8URFdXuewY2HFgNQ7lRTR5XUODo03Bo6QQVFEP/D23efjtdEAnxY6cUQv6RuRBx8S0kOaQsMa2uKYrfkry0jbqC7+SD8gw1O0BRL+MiLLQF31AR1Z0Aa//XtG7Pbo2jv5B3t3tBMhDEQBVCjFsrBsfPP/v1QTH0w0jToBCfRscj7hZjszLXOSfQemhX7BP0AzQtNCPLTV6iVOi1erFy1edTq+Vm0dAgdQoavTUaGr01GhWw2NdSCXdBOADZih23zL8YoK/f8lwxAjEAxDLmAVAIcsjEAcsoh4CIBDFg5YDlk4YDlkoYPlkIURoTtZGBH6TQLgDhZ1tywAAXYdNGMRgAAfivO6kKPlWQD0ejFC9zSEAB1eZQhe2SpDUIAoQ1CAmIZgAmKtDiYg2IngChYuZZ1UbugKlgXRWPasUMeEUKGOR+heT3GwSYGulYUJ+hklrSwNLNw50cBCK8siKTwOsakTzV4NXiQEDV7NXuRDQrAGREIwADEwRD6QEPlAQmwBQUJcMEFC5AMJkQ8kBPmQEORDQpAPCUE+kJB/lM0/JATz8ytLlofIB+72ygcS4n0UPrkoH3infnarfFzKIwuA7/tgOYLvwxEzG4hsJRufX1EaBEB7F+3enU32G2hmoX3VpE6pbv8gSnXlOUFJIRJXlOcNWAQgaFB+KESo6gXAIypq8kMA2nEXANMPXF7U3SVodvHE8QqvqLYwOF41qSsCoHuFD54YDqJW38k9CYBaHdU5FYuGr6vtaPhq7uJPxN8He5i1s74qqg+0szSv+KXk/uKnydoPvulcgv+QFwFAsV6zunmFB+s1xekK5yynK6KeGz5njXpX/Cj12bMPqJtHrV345H5WsdGAP+neI6I2Bw2t3KvNiXgu4gHhiIgHIjK0GA9QrhfxYBPd2lJjF4wOBw8G2VTqL1SvjzZFUaFez707V+zjNubTn62UHuwoLWc+ab2xYy82DIMwGIRt4yYE81D3X7YbVKrapBDdt8MJ/zxOv60AXfUZ8T3J+YC0H8/V5BZyFSAsL3VaDbkWUNoii73/57QCxhdzhDpAI9QBlJan3B2z1AFE9cn+rIbMBEhjy3M8Hb2GTAiI2v+8SNxUJgaU95EQBxD7dlx8Vq0VB5DU+iWjxNsIWRWo5DhvjruNIosDyvh1Jtlb1ST3AYRWc/++DBsqtwWoVmvu+aNbyjcz1fRidw5SGASiIAr+nhGFQcz9b5tkJ7hUQbAetW66xHv0JEv7NU/HtvYvySgBAAAAAAAAAAAAAAAAAAAAAAAAAAAAAAAAAAAAAAAAAAAAAAAAAAAAAAA8RDLq4vqJzesurG3XJ+mlm33Zu7cdx1EgDMCcjwaL93/ZlWa12U7+uCd2KFKg1N1Io27bzWe7oFxI6dXP2KSUk/NQtrUWZFcerp3+mVndIr8tfnOxPY1gnPJvnat8/zizV7+FB8k9DpU8ki/GtudhTVWbzFP6KO3fSB19/Dc6zwiR7RZvYdW+ogt0ovaLDNXbx1naC2HKDkroD/X6RXf2pbNym5zMR74dez8g7nbj0KOBZNdeDlu39AEgtb0a1espgEjXToSZC4gjuIZwMUYB0a6dDDUciG8nwirNHog07VS4qXxo2/HAcai3MhKIt+1syOFATg4nq3gDyZXgnsQi8H6mCYC0fRyQ0s6HHg7kNOKYGQPZbTsb+1RAAtDuDMTmUUDcBR9h/Kg7j9gmtkB8Ox+zZOk4lgMFkBb1GCBbuxBmBiDNSjIg4320+VL0W+wUQJobAiQfTuj+iXico/MH0mxiCcQfXvJbhImB4KgyJECapweCuW+oSkpYWveqmAAZ0qeAqKfxbFQFzRBItkDDeYlHKuWuVDV2wlle9YA7kwBpiR5IutNhy6+/MklVI5zweCCHiPT+uO5WGAIxDzo2uJp43YtxE6botyg0QIKmBIIZutIvidxqEEyAYGh1TySzAyLveXixXGCOZWmAtEoO5OJ7Ex8gGDlCJscFCD5AnBYLBq5ZeRogTZEBwWRqE2sAEbrCig0jIBn4Lhe5QUQiIE3SAtlhsnoBIEJHuHfxAbKt6wPf2wPk072BWE0DBIeCWgIITj1UZkAq/HFXCSzDsjvcC3oDaXEUELkEEJx7sMyABLgnrZuiux9nq4mAtHIeyBfIDpzYAIEZtuXi53vVBiludyDNnwbyBSIa16uSIetbLeTPzFzD2fYBEqFeghzIthQQww4Ipoxm9RTd3/1r7wlEGihbJAGyQTI7DMgXSFnSh76fg0gwwPoA0RZmAymASNI34i8QDLl6jq4ehm2EAdYFyH1CslEB0W3QI+QLBGegzeop+sOcVukJ5OE7jUQERER4UK0BJLKdxVo0Scf5wwirIn2BiApliwRAfAMhUwPBJ2PkAgTp5qXLsDwm7X2B6AA9X/oDuct1mtGzA0H3hRkQt3QSkrFMIMG9qhMQkSyULfYFgl/cWj87EExBmAHZly41KT9SdHxmpn5A8P1npwEiYrsLk+YGgjWYbIBgrUldsAwLMXhA0wEINhyxmQQIfgDq8rxA8L3R8wGC/Nq2bBlWfKpG9wOCt/dIA0Qki20JpwaiIzxAOAHRoYHfVSLenRimXVtHIHh7dwRAQAgQmQgI+miSHxCxL/tJobxPrzBzDz2B4MX0vYCgECBS8qRAZIBSaGZAhFv1o3R3kG0YuJ49gOAbq01Uzatjw3B5MiDYEdoIlkB0hLYmS4SG6wapSe0OREDZYmcgN4cYTk4FJO0lQHNKjkDwhhSc8hJD5knLsMJhY+XcEwjmdJUKiEixYTQj+QA5HUYTWCYRchwmT1mGtR0uj6iuQLC329YTCG4phxH8rEAK5+0PdH1RiNUTlmE1fbzA3hcILnZLIiDHu0wFrycEYnfmG+hsdrVtQQyk6AclWj2B4HqhJgACKS7M+k4HpEWvWQPJZrGd1/JvVR8ezqcTEMzpDAEQEiLjgaBrtkCyW25rwvLrvhNQg9ILCC5UFAog9ETogWAESQOE/v1qrnotrAvfjq+pIwACZYuHQCiJ+OmA0Hd3p98zdZ+zYbXTx3XwBEBEgfXCAyCURIKcDkiLmh0QHVfc2/bxpGI66ii59QaCZYu6MxCM5J4SqZk9EBTCDUg82l8Ko+6TlWHhPCJOAgcSIBrLFhEIfRppN96lJric3iIzIA63l5IrlGFhqINlRNkbCBL1NEBwLxoMo3kCOU6iCisgO5TzrBD6uJYBr2rtDgTLpdIREHoiNvEGgtuQS0ZAtGVfSdJxr+SQnq6TZAIg0ObkCAg9EetZA8FEOPAAgre5bcFuWDXCWIHxq2iAYNkiAhlDxLMGgkI8ByCYSvoFu2E1+TCJXfA/NUsDBNucIJBBRBJnIPgxZmADZFvr+YEPhwDvW1Fjmu4JgMBijDwEQr+yZTVnIDgWExcgccnOo/lBvbSYtN7BMRRAsM0JAiGLZGD9ii8Q7K9TmADRjcAeqzIsjTsNt7bB2WcCIJB7RgAycJ4iMwaCf7bIBIiEQ1oiLNw4dYXCE/hmvTcQbHNSRgIRKUDuxRtIAlMfB6KW7DvqD5sp3CJm6HpCAATbnAwDglOnnIGgqcQOiFyxG1Y4XIuyEtJ0AiBYtghAhlU0Z/5AIpj8NJC6IpB0MDGXIhSebECpMxBsczIICD6+JH8ghh0QsyIQB9+iP09EqobGQARAoGxxJBARH24WXyDfJ4j+ZW6zPFTAQ5reHQi2ORkEBJNM/kDCACDfHGT7Db2/T0S8bLfIJEBwxnUbCcTPAQRN6e8sFn0ZVvjr3GcrAS4AARBRG8QYIPtMQHZ+07x+vYX0/S9v3drcCbHAiQKIjqOB4NDxfIFg8miYAEltuR0KK6ToB4kIhKcDIpL9DJA6xSwWTmYoJkAEHNNCZVju1+cmhiEEIvxYIHg1muYORHEsVqxwUOuUYcmT9/OWCYGI8gkgdaKV9NQ4lrt7qANfpgwrnM4JHCUQEccD2SaqxdKB5QdTwi4iBMFvp5s6WE0JJNsOQJR1u77ioyXeQPIUn9zGtE4ZVtPnkwJPCURIBHLt/Ix6RVaukGDN0rTBs23a0JRepQzLXdjoL5ICEQqAXE66rVFS/8qjWLDIFshuGmDm0/bnwmaQWqpamZdhyRNP9VtIUiCivgvE33t2Suan9jcDLW+ZAsnSO/swBPMbQKJ5NdLlFmuxHDNMcivGwlnza1gdLvUkdrRAdHgTSG0Y0RS1yVuoYiyLhrftbFznqEh/jY4NIxildvl/eKWKub/yiXUZ1natfZYmBSLSm0BsuxQ2iXmAeMEHCAqZu817OD3S5cOQ22iBCP8WEEnggxsQL4YBIRai2PmQmKKfTUQMMRDh3gFSLvmISfAFgpZ5AcGXcbqddHgWHuk6FIiO73wFay/4cB9qXh2vjCktuADBeeizEbj5yBePTQ0CgrPL4nTszhJsakYCxJ0fUbu4FokeiNDqNBE2MnCgb1fvDp4ciNjffAbvJbzOw3+uoUc+ySO+cazmGhBiIokZEHs2Rcd2DlHQAxEFcuezkX19BUndP9rxxp/QEUoas0nae+p9fdGGNUoKZuExRT+biBg9AohwsBXDJSTF2GMc1nn96ZZQ6aX3QWOUz+/36w4UQDD0XgAjrJD4JJaLpJRKI3+ZFx0iy02ZRycRRlzf+Mafq44PDVPULv9pn45NAACBIIDdY/fuv6+NuIAgFskOyY/o2h7OoI6RKwAAAAAAAAAAAAAAAAAAAAAAAAAAAAAAAAAAAAAAAAAAAAAAAAAAAAAAAAAAAAAAAAAAAAAAAAAAAAAAAAAAAAAAAAsLz5a5lTTs5gAAAABJRU5ErkJggg==;" vertex="1" parent="1">
          <mxGeometry x="791" y="587.5" width="79" height="79" as="geometry" />
        </mxCell>
        <mxCell id="OP_FHKB6S3hPQ0ZAlqrp-61" value="" style="endArrow=classic;html=1;rounded=0;elbow=vertical;" edge="1" parent="1" source="OP_FHKB6S3hPQ0ZAlqrp-55" target="OP_FHKB6S3hPQ0ZAlqrp-60">
          <mxGeometry width="50" height="50" relative="1" as="geometry">
            <mxPoint x="734" y="668" as="sourcePoint" />
            <mxPoint x="719" y="505" as="targetPoint" />
          </mxGeometry>
        </mxCell>
        <mxCell id="OP_FHKB6S3hPQ0ZAlqrp-64" value="" style="shape=partialRectangle;whiteSpace=wrap;html=1;right=0;top=0;bottom=0;fillColor=none;routingCenterX=-0.5;strokeWidth=2;" vertex="1" parent="1">
          <mxGeometry x="600" y="488" width="70" height="10" as="geometry" />
        </mxCell>
        <mxCell id="OP_FHKB6S3hPQ0ZAlqrp-65" value="" style="fontColor=#0066CC;verticalAlign=top;verticalLabelPosition=bottom;labelPosition=center;align=center;html=1;outlineConnect=0;fillColor=#CCCCCC;strokeColor=#6881B3;gradientColor=none;gradientDirection=north;strokeWidth=2;shape=mxgraph.networks.web_server;" vertex="1" parent="1">
          <mxGeometry x="880" y="392.5" width="105" height="105" as="geometry" />
        </mxCell>
        <mxCell id="OP_FHKB6S3hPQ0ZAlqrp-67" value="" style="shape=partialRectangle;whiteSpace=wrap;html=1;top=0;left=0;fillColor=none;strokeWidth=2;" vertex="1" parent="1">
          <mxGeometry x="770" y="493" width="170" height="20" as="geometry" />
        </mxCell>
        <mxCell id="OP_FHKB6S3hPQ0ZAlqrp-68" value="&lt;b&gt;Web-3&lt;/b&gt;&lt;div&gt;&lt;b&gt;Private IP: 10.0.0.4&lt;/b&gt;&lt;/div&gt;" style="text;html=1;align=center;verticalAlign=middle;resizable=0;points=[];autosize=1;strokeColor=none;fillColor=none;" vertex="1" parent="1">
          <mxGeometry x="855" y="518" width="130" height="40" as="geometry" />
        </mxCell>
        <mxCell id="OP_FHKB6S3hPQ0ZAlqrp-71" value="" style="endArrow=none;html=1;rounded=0;elbow=vertical;strokeWidth=2;exitX=0;exitY=0.14;exitDx=0;exitDy=0;exitPerimeter=0;" edge="1" parent="1" source="OP_FHKB6S3hPQ0ZAlqrp-65">
          <mxGeometry width="50" height="50" relative="1" as="geometry">
            <mxPoint x="930" y="447" as="sourcePoint" />
            <mxPoint x="770" y="310" as="targetPoint" />
          </mxGeometry>
        </mxCell>
      </root>
    </mxGraphModel>
  </diagram>
</mxfile>
